# xmcd
#
# Track frame offsets: 
#        150
#        16635
#        44190
#        60535
#        77202
#        93385
#        106970
#        141735
#        159660
#        175845
#        191927
#        206762
#
# Disc length: 2981 seconds
#
# Revision: 1
# Processed by: cddbd v1.5.1PL0 Copyright (c) Steve Scherf et al.
# Submitted via: ExactAudioCopy v0.95b3
#
DISCID=ae0ba30c
DTITLE=Alabama - In The Mood:The Love Songs (1of2)
DYEAR=1900
DGENRE=Country
TTITLE0=I'm In The Mood
TTITLE1=The Living Years
TTITLE2=When We Make Love
TTITLE3=Touch Me When We're Dancing
TTITLE4=Feel's So Right
TTITLE5=How Do You Fall In Love
TTITLE6=Fallin' Again
TTITLE7=Lady Down On Love
TTITLE8=The Closer You Get
TTITLE9=If I Had You
TTITLE10=We Can't Love Like This Anymore
TTITLE11=Then Again
EXTD=
EXTT0=
EXTT1=
EXTT2=
EXTT3=
EXTT4=
EXTT5=
EXTT6=
EXTT7=
EXTT8=
EXTT9=
EXTT10=
EXTT11=
PLAYORDER=
